<svg xmlns="http://www.w3.org/2000/svg" viewBox="0 0 2227.276 2804.119">
  <defs>
    <style>
      .a {
        isolation: isolate;
      }

      .b {
        fill: #f7ad6a;
      }

      .c {
        fill: #788fc8;
      }

      .d {
        fill: #375499;
      }

      .e {
        fill: none;
        stroke: #000;
        stroke-miterlimit: 10;
        stroke-width: 40px;
      }
    </style>
  </defs>
  <g>
    <path d="M1528.572,3171.767c25.59,0,46.062-9.5,46.062-48.987V2732.343h80.427v384.588c0,102.361-54.836,128.683-115.522,128.683-14.623,0-25.591,0-38.751-1.463v-73.115C1509.562,3171.767,1519.8,3171.767,1528.572,3171.767Z" transform="translate(-931.023 -446.613)"/>
    <path d="M1786.667,3127.167c0,36.557,16.085,49.718,41.676,49.718s41.676-13.161,41.676-49.718V2732.343h76.04v389.706c0,81.889-40.945,128.683-119.91,128.683s-119.909-46.794-119.909-128.683V2732.343h80.427Z" transform="translate(-931.023 -446.613)"/>
    <path d="M2109.1,2726.494c78.233,0,118.447,46.794,118.447,128.683v16.086h-76.04v-21.2c0-36.558-14.624-50.45-40.214-50.45s-40.213,13.892-40.213,50.45c0,105.286,157.2,125.028,157.2,271.258,0,81.89-40.945,128.684-119.91,128.684s-119.909-46.794-119.909-128.684v-31.439h76.04v36.558c0,36.557,16.086,49.718,41.676,49.718s41.676-13.161,41.676-49.718c0-105.287-157.2-125.028-157.2-271.259C1990.656,2773.288,2030.869,2726.494,2109.1,2726.494Z" transform="translate(-931.023 -446.613)"/>
    <path d="M2499.535,2732.343v73.116h-84.083v438.692h-80.427V2805.459h-84.083v-73.116Z" transform="translate(-931.023 -446.613)"/>
  </g>
  <g>
    <g class="a">
      <path class="b" d="M2005.326,1804.613A343.5,343.5,0,1,1,2248.217,1704,341.249,341.249,0,0,1,2005.326,1804.613Z" transform="translate(-931.023 -446.613)"/>
      <path d="M2005.326,1137.613a322.362,322.362,0,1,1-125.909,25.406,321.436,321.436,0,0,1,125.909-25.406m0-40c-200.756,0-363.5,162.745-363.5,363.5s162.744,363.5,363.5,363.5,363.5-162.745,363.5-363.5-162.745-363.5-363.5-363.5Z" transform="translate(-931.023 -446.613)"/>
    </g>
    <g>
      <g class="a">
        <path class="c" d="M1382.616,1867.613c-60.219,0-116.842-23.7-159.438-66.726a229.75,229.75,0,0,1,0-322.548c42.6-43.029,99.219-66.726,159.438-66.726s116.842,23.7,159.438,66.726a229.75,229.75,0,0,1,0,322.548C1499.458,1843.916,1442.835,1867.613,1382.616,1867.613Z" transform="translate(-931.023 -446.613)"/>
        <path d="M1382.616,1426.613a207.13,207.13,0,0,1,81.848,16.684,209.76,209.76,0,0,1,66.93,45.6,214.4,214.4,0,0,1,0,301.442,209.76,209.76,0,0,1-66.93,45.6,209.106,209.106,0,0,1-163.7,0,209.76,209.76,0,0,1-66.93-45.6,214.4,214.4,0,0,1,0-301.442,209.76,209.76,0,0,1,66.93-45.6,207.13,207.13,0,0,1,81.848-16.684m0-30c-132.855,0-240.555,108.795-240.555,243s107.7,243,240.555,243,240.556-108.8,240.556-243-107.7-243-240.556-243Z" transform="translate(-931.023 -446.613)"/>
      </g>
      <g class="a">
        <path class="c" d="M2406.618,2501.613c-60.219,0-116.842-23.7-159.437-66.725a229.749,229.749,0,0,1,0-322.549c42.595-43.028,99.218-66.726,159.437-66.726s116.843,23.7,159.439,66.726a229.751,229.751,0,0,1,0,322.549C2523.461,2477.916,2466.838,2501.613,2406.618,2501.613Z" transform="translate(-931.023 -446.613)"/>
        <path d="M2406.618,2060.613a207.126,207.126,0,0,1,81.848,16.684,209.749,209.749,0,0,1,66.93,45.595,214.4,214.4,0,0,1,0,301.442,209.765,209.765,0,0,1-66.93,45.6,209.1,209.1,0,0,1-163.695,0,209.78,209.78,0,0,1-66.931-45.6,214.4,214.4,0,0,1,0-301.442,209.764,209.764,0,0,1,66.931-45.595,207.121,207.121,0,0,1,81.847-16.684m0-30c-132.855,0-240.555,108.795-240.555,243s107.7,243,240.555,243,240.556-108.795,240.556-243-107.7-243-240.556-243Z" transform="translate(-931.023 -446.613)"/>
      </g>
      <g class="a">
        <path class="c" d="M2516.879,1219.613c-60.219,0-116.842-23.7-159.439-66.726a229.75,229.75,0,0,1,0-322.548c42.6-43.029,99.22-66.726,159.439-66.726s116.843,23.7,159.438,66.726a229.748,229.748,0,0,1,0,322.548C2633.722,1195.916,2577.1,1219.613,2516.879,1219.613Z" transform="translate(-931.023 -446.613)"/>
        <path d="M2516.879,778.613a207.13,207.13,0,0,1,81.848,16.684,209.76,209.76,0,0,1,66.93,45.6,214.4,214.4,0,0,1,0,301.442,209.76,209.76,0,0,1-66.93,45.6,209.106,209.106,0,0,1-163.7,0,209.76,209.76,0,0,1-66.93-45.6,214.4,214.4,0,0,1,0-301.442,209.76,209.76,0,0,1,66.93-45.6,207.13,207.13,0,0,1,81.848-16.684m0-30c-132.855,0-240.555,108.795-240.555,243s107.7,243,240.555,243,240.555-108.8,240.555-243-107.7-243-240.555-243Z" transform="translate(-931.023 -446.613)"/>
      </g>
      <g class="a">
        <path class="d" d="M1927.879,917.613c-60.219,0-116.842-23.7-159.438-66.726a229.75,229.75,0,0,1,0-322.548c42.6-43.029,99.219-66.726,159.438-66.726s116.843,23.7,159.438,66.726a229.748,229.748,0,0,1,0,322.548C2044.722,893.916,1988.1,917.613,1927.879,917.613Z" transform="translate(-931.023 -446.613)"/>
        <path d="M1927.879,476.613a207.126,207.126,0,0,1,81.848,16.684,209.76,209.76,0,0,1,66.93,45.6,214.4,214.4,0,0,1,0,301.442,209.76,209.76,0,0,1-66.93,45.6,209.106,209.106,0,0,1-163.7,0,209.76,209.76,0,0,1-66.93-45.6,214.4,214.4,0,0,1,0-301.442,209.76,209.76,0,0,1,66.93-45.6,207.13,207.13,0,0,1,81.848-16.684m0-30c-132.855,0-240.555,108.8-240.555,243s107.7,243,240.555,243,240.556-108.8,240.556-243-107.7-243-240.556-243Z" transform="translate(-931.023 -446.613)"/>
      </g>
      <g class="a">
        <path class="d" d="M2917.744,1930.613c-60.22,0-116.843-23.7-159.438-66.726a229.748,229.748,0,0,1,0-322.548c42.595-43.029,99.218-66.726,159.438-66.726s116.842,23.7,159.438,66.726a229.75,229.75,0,0,1,0,322.548C3034.586,1906.916,2977.963,1930.613,2917.744,1930.613Z" transform="translate(-931.023 -446.613)"/>
        <path d="M2917.744,1489.613a207.13,207.13,0,0,1,81.848,16.684,209.76,209.76,0,0,1,66.93,45.6,214.4,214.4,0,0,1,0,301.442,209.76,209.76,0,0,1-66.93,45.6,209.106,209.106,0,0,1-163.7,0,209.749,209.749,0,0,1-66.93-45.6,214.4,214.4,0,0,1,0-301.442,209.749,209.749,0,0,1,66.93-45.6,207.13,207.13,0,0,1,81.848-16.684m0-30c-132.855,0-240.556,108.795-240.556,243s107.7,243,240.556,243,240.555-108.8,240.555-243-107.7-243-240.555-243Z" transform="translate(-931.023 -446.613)"/>
      </g>
      <g class="a">
        <path class="d" d="M1554.972,2569.613c-60.22,0-116.843-23.7-159.439-66.725a229.751,229.751,0,0,1,0-322.549c42.6-43.028,99.219-66.726,159.439-66.726s116.842,23.7,159.438,66.726a229.751,229.751,0,0,1,0,322.549C1671.814,2545.916,1615.191,2569.613,1554.972,2569.613Z" transform="translate(-931.023 -446.613)"/>
        <path d="M1554.971,2128.613a207.143,207.143,0,0,1,81.848,16.683,209.767,209.767,0,0,1,66.931,45.6,214.4,214.4,0,0,1,0,301.442,209.78,209.78,0,0,1-66.931,45.6,209.1,209.1,0,0,1-163.695,0,209.78,209.78,0,0,1-66.931-45.6,214.4,214.4,0,0,1,0-301.442,209.767,209.767,0,0,1,66.931-45.6,207.142,207.142,0,0,1,81.847-16.683m0-30c-132.855,0-240.555,108.8-240.555,243s107.7,243,240.555,243,240.556-108.795,240.556-243-107.7-243-240.556-243Z" transform="translate(-931.023 -446.613)"/>
      </g>
      <g class="a">
        <path class="c" d="M1171.579,1092.613c-60.22,0-116.843-23.7-159.438-66.726a229.748,229.748,0,0,1,0-322.548c42.6-43.029,99.218-66.726,159.438-66.726s116.842,23.7,159.438,66.726a229.75,229.75,0,0,1,0,322.548C1288.421,1068.916,1231.8,1092.613,1171.579,1092.613Z" transform="translate(-931.023 -446.613)"/>
        <path d="M1171.579,651.613a207.13,207.13,0,0,1,81.848,16.684,209.76,209.76,0,0,1,66.93,45.6,214.4,214.4,0,0,1,0,301.442,209.76,209.76,0,0,1-66.93,45.6,209.106,209.106,0,0,1-163.7,0,209.76,209.76,0,0,1-66.93-45.6,214.4,214.4,0,0,1,0-301.442,209.76,209.76,0,0,1,66.93-45.6,207.126,207.126,0,0,1,81.848-16.684m0-30c-132.855,0-240.556,108.795-240.556,243s107.7,243,240.556,243,240.555-108.8,240.555-243-107.7-243-240.555-243Z" transform="translate(-931.023 -446.613)"/>
      </g>
    </g>
    <path class="e" d="M1841.826,1784.613l-179,355m498-374,153,297m21-501,350,74m-420-395,91-81m-428-242,19,189m-585-112,339,265m227-349,12,196m-342,485,75-28m168,221-179,355m498-374,153,297m21-501,350,74m-420-395,91-81m-428-242,19,189m-585-112,339,265m227-349,12,196m-342,485,75-28m169,222-179,355m498-374,153,297m21-501,350,74m-420-395,91-81m-428-242,19,189m-585-112,339,265m227-349,12,196m-342,485,75-28m169,222-179,355m498-374,153,297m21-501,350,74m-420-395,91-81m-428-242,19,189m-585-112,339,265m227-349,12,196m-342,485,75-28m169,220-179,355m498-374,153,297m21-501,350,74m-420-395,91-81m-428-242,19,189m-585-112,339,265m227-349,12,196m-342,485,75-28m169,220-179,355m498-374,153,297m21-501,350,74m-420-395,91-81m-428-242,19,189m-585-112,339,265m227-349,12,196m-342,485,75-28" transform="translate(-931.023 -446.613)"/>
  </g>
</svg>
